<svg aria-hidden="true" style="position: absolute; width: 0; height: 0; overflow: hidden;" version="1.1" xmlns="http://www.w3.org/2000/svg" xmlns:xlink="http://www.w3.org/1999/xlink">
<defs>
<symbol id="icon-menu_alt" viewBox="0 0 50 32">
<path d="M0.889 5.333v-5.333h48v5.333h-48z"></path>
<path d="M0.889 18.667h48v-5.333h-48v5.333z"></path>
<path d="M24.889 32h24v-5.333h-24v5.333z"></path>
</symbol>
<symbol id="icon-menu_close" viewBox="0 0 32 32">
<path d="M2.382 0l28.582 28.582-2.382 2.382-28.582-28.582 2.382-2.382z"></path>
<path d="M0.698 28.632l28.582-28.582 2.382 2.382-28.582 28.582-2.382-2.382z"></path>
</symbol>
<symbol id="icon-left-arrow" viewBox="0 0 80 32">
<path fill="#fff" style="fill: var(--color1, #fff)" d="M16.638 32l-16.638-16 3.328-3.2 16.638 16-3.328 3.2z"></path>
<path fill="#fff" style="fill: var(--color1, #fff)" d="M0 16l16.638-16 3.328 3.2-16.638 16-3.327-3.2z"></path>
<path fill="#fff" style="fill: var(--color1, #fff)" d="M2.353 13.576h77.647v4.526h-77.647v-4.526z"></path>
</symbol>
<symbol id="icon-logo" viewBox="0 0 206 32">
<path fill="#000" style="fill: var(--color2, #000)" d="M64.357 8.866v8.838l-14.006-17.695h6.994l7.012 8.857z"></path>
<path fill="#063" style="fill: var(--color3, #063)" d="M52.482 2.699l1.56 1.965-0.002 0.003-1.558-1.968zM57.337 0l0.008 0.010h-6.994l-0.008-0.010h6.994z"></path>
<path fill="#000" style="fill: var(--color2, #000)" d="M77.71 25.739l-6.611 0.063v-0.054h0.017l-0.017-0.022v-8.342l1.427 1.804 0.256 0.326 4.928 6.224z"></path>
<path fill="#063" style="fill: var(--color3, #063)" d="M71.098 25.666v0.060l-0.028-0.035 0.028-0.025zM71.116 25.885h-0.106l0.060-0.058 0.028-0.025v0.060l0.018 0.022zM71.115 25.748h-0.017v-0.022l0.017 0.022z"></path>
<path fill="#000" style="fill: var(--color2, #000)" d="M64.354 25.748v6.25h-18.667l-25.318-31.989h6.994l20.372 25.738h16.618z"></path>
<path fill="#000" style="fill: var(--color2, #000)" d="M71.098 25.666v0.060l-0.028-0.035 0.028-0.025z"></path>
<path fill="#000" style="fill: var(--color2, #000)" d="M45.688 31.999h-45.688v-6.25l20.37-25.74 4.059 5.127-16.315 20.613h21.747l5.439-6.873 3.754 4.74-1.688 2.133h3.376l4.946 6.25z"></path>
<path fill="#000" style="fill: var(--color2, #000)" d="M50.338 0l0.008 0.010h-0.016l0.008-0.010z"></path>
<path fill="#000" style="fill: var(--color2, #000)" d="M54.042 4.664l-0.002 0.003-1.558-1.968 1.56 1.965z"></path>
<path fill="#000" style="fill: var(--color2, #000)" d="M79.162 31.998h-14.808v-6.114l0.003-0.086v-25.796l6.739-0.003 0.002 17.221v8.446l-0.028 0.025 0.028 0.035v0.076l-0.028 0.026-0.060 0.056h0.106l-0.018-0.022v-0.060l6.611-0.064 1.427 1.886 0.025 4.374z"></path>
<path fill="#000" style="fill: var(--color2, #000)" d="M71.098 25.666v0.060l-0.028-0.035 0.028-0.025z"></path>
<path fill="#008d36" style="fill: var(--color4, #008d36)" d="M71.115 25.748h-0.017v-0.022l0.017 0.022z"></path>
<path fill="#000" style="fill: var(--color2, #000)" d="M54.039 4.667l-11.51 14.502-3.698-4.674 11.498-14.486h0.015l2.136 2.69 1.558 1.968z"></path>
<path fill="#149038" style="fill: var(--color5, #149038)" d="M82.838 16.392v-15.914h10.212v1.724h-8.245v5.349h7.206v1.702h-7.206v5.416h8.222v1.723h-10.19z"></path>
<path fill="#149038" style="fill: var(--color5, #149038)" d="M93.242 16.606h-10.616v-16.34h10.638v2.15h-8.244v4.922h7.206v2.128h-7.206v4.989h8.222v2.15zM83.052 16.179h9.762v-1.298h-8.222v-5.842h7.205v-1.275h-7.205v-5.776h8.244v-1.297h-9.785v15.487zM101.891 4.368v1.968c-0.678 0.099-1.289 0.268-1.865 0.505l0.052-0.019c-1.158 0.475-2.11 0.942-3.028 1.461l0.133-0.069v8.178h-1.879v-11.935h1.813v2.144l1.127-0.73c1.385-0.913 2.601-1.414 3.647-1.502z"></path>
<path fill="#149038" style="fill: var(--color5, #149038)" d="M97.396 16.606h-2.305v-12.362h2.239v1.966l0.798-0.517c1.407-0.928 2.668-1.446 3.745-1.536l0.232-0.020v2.384l-0.183 0.027c-0.66 0.097-1.254 0.262-1.815 0.491l0.051-0.019c-1.107 0.453-2.015 0.897-2.892 1.39l0.13-0.067v8.263zM95.518 16.179h1.452v-8.093l0.113-0.060c0.792-0.454 1.752-0.925 2.743-1.338l0.179-0.066c0.54-0.216 1.101-0.373 1.674-0.469v-1.546c-0.955 0.136-2.070 0.62-3.316 1.442l-1.458 0.944v-2.324h-1.386v11.509zM103.394 0.214h1.945v2.32h-1.945v-2.32zM103.438 4.457h1.878v11.936h-1.878v-11.937z"></path>
<path fill="#149038" style="fill: var(--color5, #149038)" d="M105.53 16.606h-2.306v-12.362h2.306v12.362zM103.651 16.179h1.452v-11.509h-1.452v11.509zM105.552 2.747h-2.371v-2.747h2.371v2.747zM103.607 2.321h1.518v-1.894h-1.518v1.894zM111.594 15.022c1.857 0 2.786-0.685 2.786-2.056-0.059-0.648-0.27-1.082-0.63-1.304-0.362-0.22-1.117-0.412-2.266-0.574-1.458-0.192-2.457-0.549-2.994-1.072s-0.837-1.293-0.895-2.31c0-2.342 1.584-3.514 4.752-3.514 1.11 0.006 2.22 0.102 3.315 0.288v1.702c-0.919-0.179-1.992-0.299-3.088-0.331l-0.029-0.001c-2.004 0-3.006 0.59-3.006 1.768-0 0.012-0 0.027-0 0.042 0 0.218 0.036 0.428 0.104 0.624l-0.004-0.014c0.070 0.189 0.198 0.352 0.365 0.464 0.177 0.126 0.321 0.225 0.431 0.298 0.197 0.104 0.41 0.176 0.63 0.21 0.31 0.066 0.512 0.106 0.608 0.122s0.328 0.044 0.696 0.088c1.12 0.162 1.923 0.368 2.41 0.619 1.031 0.515 1.547 1.451 1.547 2.806 0 1.208-0.394 2.141-1.182 2.796s-1.934 0.984-3.438 0.984c-1.441-0.013-2.845-0.101-4.228-0.26l0.183 0.017v-1.746c1.167 0.202 2.526 0.329 3.91 0.353l0.024 0z"></path>
<path fill="#149038" style="fill: var(--color5, #149038)" d="M111.704 16.871c-1.449-0.013-2.861-0.102-4.251-0.262l0.185 0.017-0.191-0.020v-2.186l0.245 0.037c1.291 0.211 2.595 0.328 3.902 0.351 1.731 0 2.572-0.602 2.572-1.842-0.051-0.555-0.23-0.939-0.528-1.122-0.334-0.204-1.070-0.388-2.184-0.545-1.518-0.199-2.537-0.569-3.114-1.13-0.575-0.559-0.898-1.383-0.959-2.45-0.001-2.486 1.67-3.74 4.965-3.74 1.122 0.006 2.242 0.104 3.35 0.29l0.179 0.029v2.135l-0.249-0.042c-0.907-0.177-1.968-0.295-3.051-0.327l-0.030-0.001c-2.793 0-2.793 1.17-2.793 1.554-0.005 0.197 0.025 0.393 0.086 0.58 0.057 0.151 0.157 0.274 0.284 0.36l0.003 0.002c0.175 0.125 0.318 0.223 0.426 0.296 0.174 0.090 0.362 0.15 0.556 0.178 0.318 0.068 0.507 0.106 0.595 0.119 0.095 0.014 0.326 0.044 0.69 0.088 1.16 0.168 1.97 0.378 2.482 0.64 1.102 0.552 1.663 1.56 1.663 2.998 0 1.269-0.424 2.264-1.26 2.96-0.824 0.685-2.026 1.032-3.574 1.032zM107.873 16.222c1.454 0.148 2.742 0.222 3.831 0.222 1.445 0 2.556-0.314 3.301-0.934 0.744-0.618 1.106-1.479 1.106-2.632 0-1.279-0.467-2.134-1.429-2.616-0.465-0.239-1.253-0.44-2.345-0.598-0.368-0.040-0.607-0.071-0.845-0.105l0.147 0.017c-0.288-0.049-0.498-0.093-0.705-0.141l0.086 0.017c-0.264-0.042-0.501-0.127-0.715-0.247l0.011 0.006c-0.205-0.136-0.347-0.235-0.487-0.337l0.051 0.035c-0.201-0.138-0.355-0.331-0.44-0.558l-0.003-0.008c-0.071-0.205-0.112-0.442-0.112-0.688 0-0.013 0-0.025 0-0.038l-0 0.002c0-1.315 1.083-1.982 3.22-1.982 1.046 0.028 2.047 0.133 3.022 0.312l-0.119-0.018v-1.269c-0.929-0.157-2.002-0.25-3.096-0.256l-0.006-0c-3.054 0-4.539 1.080-4.539 3.301 0.055 0.946 0.335 1.675 0.831 2.158 0.502 0.488 1.468 0.829 2.874 1.013 1.191 0.168 1.959 0.366 2.349 0.604 0.42 0.258 0.666 0.751 0.731 1.467 0.001 1.054-0.519 2.288-2.998 2.288-1.331-0.022-2.617-0.137-3.874-0.34l0.153 0.020v1.306zM120.833 1.826v2.63h3.823v1.636h-3.823v7.493c-0.001 0.019-0.001 0.040-0.001 0.062 0 0.364 0.148 0.694 0.388 0.932l0 0c0.322 0.274 0.739 0.408 1.16 0.376 0.66-0.011 1.289-0.124 1.879-0.322l-0.044 0.013v1.658c-0.799 0.175-1.734 0.294-2.689 0.33l-0.030 0.001c-0.898 0-1.55-0.214-1.956-0.64-0.405-0.428-0.608-1.083-0.607-1.968v-7.934h-1.68v-1.194l0.398-0.442h1.282v-1.458l1.127-1.172h0.774z"></path>
<path fill="#149038" style="fill: var(--color5, #149038)" d="M121.495 16.849c-0.955 0-1.666-0.238-2.11-0.708-0.442-0.466-0.666-1.176-0.666-2.114v-7.722h-1.68v-1.488l0.516-0.574h1.164v-1.331l1.25-1.298h1.078v2.63h3.824v2.062h-3.824v7.28c-0.001 0.018-0.002 0.039-0.002 0.060 0 0.305 0.124 0.581 0.324 0.781v0c0.283 0.232 0.646 0.346 1.011 0.315 0.637-0.012 1.244-0.121 1.814-0.312l-0.042 0.012 0.277-0.086v2.126l-0.174 0.032c-0.811 0.177-1.758 0.298-2.727 0.335l-0.031 0.001zM117.466 5.88h1.679v8.148c0 0.824 0.185 1.437 0.55 1.821 0.361 0.381 0.967 0.574 1.801 0.574 0.842-0.030 1.68-0.13 2.506-0.296v-1.195c-0.484 0.144-1.041 0.23-1.618 0.238l-0.004 0c-0.037 0.003-0.081 0.004-0.125 0.004-0.454 0-0.868-0.167-1.186-0.442l0.002 0.002c-0.279-0.277-0.453-0.661-0.453-1.085 0-0.022 0-0.044 0.001-0.066l-0 0.003v-7.706h3.824v-1.21h-3.824v-2.63h-0.47l-1.005 1.044v1.586h-1.4l-0.279 0.31v0.899zM135.796 14.204v1.68c-1.451 0.499-2.974 0.76-4.509 0.774-1.931 0-3.378-0.509-4.343-1.525s-1.448-2.594-1.448-4.73c0-2.018 0.471-3.558 1.414-4.619s2.306-1.592 4.090-1.592c1.694 0 2.961 0.48 3.802 1.437 0.839 0.958 1.259 2.424 1.259 4.398v0.906h-8.62c0.015 2.696 1.43 4.045 4.244 4.045 1.482-0.022 2.892-0.303 4.195-0.802l-0.084 0.028zM127.419 9.518h6.697c0-2.52-1.068-3.779-3.205-3.78-0.065-0.005-0.14-0.007-0.217-0.007-0.879 0-1.674 0.358-2.248 0.935l-0 0c-0.714 0.678-1.057 1.629-1.027 2.852z"></path>
<path fill="#149038" style="fill: var(--color5, #149038)" d="M131.287 16.871c-1.982 0-3.496-0.536-4.498-1.592-0.999-1.052-1.506-2.694-1.506-4.877 0-2.063 0.494-3.665 1.468-4.761 0.981-1.104 2.41-1.664 4.249-1.664 1.75 0 3.083 0.509 3.962 1.51 0.871 0.994 1.313 2.52 1.313 4.539v1.12h-8.615c0.085 2.433 1.403 3.618 4.026 3.618 1.457-0.023 2.842-0.3 4.122-0.789l-0.083 0.028 0.286-0.102v2.136l-0.146 0.048c-1.362 0.484-2.933 0.77-4.569 0.786l-0.007 0zM131 4.405c-1.711 0-3.034 0.512-3.93 1.52-0.903 1.016-1.361 2.522-1.361 4.478 0 2.070 0.467 3.613 1.389 4.583 0.918 0.968 2.328 1.458 4.189 1.458 1.54-0.014 3.015-0.274 4.394-0.744l-0.099 0.029v-1.226c-1.159 0.419-2.496 0.669-3.889 0.688l-0.009 0c-2.942 0-4.442-1.433-4.457-4.258l-0.002-0.214h8.622v-0.693c0-1.912-0.406-3.344-1.207-4.258-0.794-0.905-2.018-1.364-3.641-1.364zM134.33 9.732h-7.118l-0.006-0.208c-0.031-1.28 0.338-2.294 1.094-3.012 0.613-0.614 1.46-0.994 2.396-0.994 0.080 0 0.16 0.003 0.239 0.008l-0.011-0.001h0.001c2.254 0 3.404 1.344 3.404 3.992v0.214zM127.631 9.305h6.269c-0.057-2.256-1.036-3.352-2.989-3.352-0.066-0.005-0.143-0.008-0.221-0.008-0.82 0-1.562 0.335-2.096 0.877l-0 0c-0.626 0.594-0.949 1.428-0.962 2.483zM140.194 16.216v4.707h-1.878v-16.466h1.878v1.37c1.533-1.090 3.014-1.635 4.443-1.635 0.040-0.002 0.086-0.002 0.133-0.002 1.246 0 2.346 0.621 3.009 1.571l0.008 0.012c0.758 1.054 1.138 2.509 1.138 4.366 0 4.318-1.879 6.476-5.637 6.476-1.114-0.033-2.177-0.177-3.202-0.42l0.107 0.021zM146.979 10.248c0-1.444-0.254-2.534-0.762-3.272-0.444-0.67-1.194-1.106-2.047-1.106-0.030 0-0.060 0.001-0.091 0.002l0.004-0c-1.164 0-2.461 0.493-3.89 1.48v7.25c0.954 0.245 1.933 0.386 2.918 0.419 2.578 0 3.868-1.591 3.868-4.774z"></path>
<path fill="#149038" style="fill: var(--color5, #149038)" d="M140.407 21.136h-2.306v-16.892h2.306v1.178c1.446-0.958 2.868-1.443 4.23-1.443 0.039-0.001 0.085-0.002 0.131-0.002 1.317 0 2.481 0.656 3.183 1.659l0.008 0.013c0.782 1.086 1.179 2.597 1.179 4.49 0 4.438-1.968 6.689-5.85 6.689-1.036-0.028-2.027-0.154-2.984-0.369l0.102 0.019v4.66zM138.529 20.71h1.452v-4.757l0.257 0.054c0.904 0.218 1.952 0.36 3.027 0.393l0.024 0.001c3.649 0 5.422-2.048 5.422-6.262 0-1.802-0.37-3.229-1.098-4.241-0.627-0.908-1.661-1.495-2.833-1.495-0.050 0-0.1 0.001-0.15 0.003l0.007-0c-1.377 0-2.83 0.538-4.319 1.596l-0.337 0.24v-1.57h-1.452v16.040zM143.111 15.235c-1.070-0.038-2.087-0.191-3.062-0.447l0.097 0.022-0.165-0.038v-7.532l0.092-0.064c1.459-1.008 2.809-1.518 4.011-1.518 0.026-0.001 0.057-0.001 0.088-0.001 0.925 0 1.739 0.472 2.215 1.188l0.006 0.010c0.53 0.77 0.8 1.912 0.8 3.392 0 3.31-1.373 4.988-4.082 4.988zM140.407 14.432c0.886 0.22 1.792 0.346 2.704 0.376 2.46 0 3.655-1.491 3.655-4.56 0-1.394-0.244-2.453-0.725-3.15-0.403-0.615-1.089-1.015-1.869-1.015-0.031 0-0.062 0.001-0.093 0.002l0.004-0c-1.090 0-2.326 0.464-3.677 1.38v6.968zM154.561 9.386h3.558v-1.282c0-1.533-0.95-2.298-2.851-2.299-0.666 0.014-1.331 0.074-1.99 0.178-0.662 0.088-1.318 0.214-1.967 0.376v-1.659c0.501-0.118 1.223-0.235 2.166-0.354 0.661-0.095 1.427-0.151 2.206-0.155l0.004-0c1.385 0 2.453 0.343 3.205 1.028s1.127 1.684 1.127 2.995v8.178h-1.614l-0.154-1.502c-1.533 1.075-2.947 1.614-4.244 1.613-1.164 0-2.074-0.317-2.73-0.95s-0.983-1.48-0.983-2.542c0-1.149 0.379-2.040 1.138-2.674s1.802-0.95 3.128-0.95zM158.119 13.519v-2.719h-3.36c-0.825 0-1.455 0.181-1.89 0.542-0.402 0.347-0.655 0.858-0.655 1.427 0 0.038 0.001 0.076 0.003 0.114l-0-0.005c-0.002 0.029-0.002 0.062-0.002 0.096 0 0.566 0.243 1.075 0.631 1.428l0.002 0.001c0.426 0.346 0.975 0.556 1.573 0.556 0.049 0 0.098-0.001 0.146-0.004l-0.007 0c0.659-0.019 1.28-0.167 1.842-0.42l-0.030 0.012c0.668-0.272 1.245-0.618 1.759-1.038l-0.012 0.010z"></path>
<path fill="#149038" style="fill: var(--color5, #149038)" d="M154.008 16.716c-1.216 0-2.185-0.34-2.878-1.010-0.696-0.672-1.049-1.578-1.049-2.695 0-1.21 0.409-2.165 1.215-2.838 0.794-0.664 1.893-1 3.264-1h3.345v-1.069c0-1.403-0.862-2.086-2.638-2.086-0.656 0.014-1.31 0.073-1.959 0.175-0.653 0.088-1.301 0.211-1.941 0.37l-0.27 0.074v-2.106l0.165-0.039c0.504-0.118 1.24-0.238 2.188-0.358 0.669-0.096 1.445-0.152 2.233-0.156l0.004-0c1.434 0 2.56 0.365 3.349 1.083 0.794 0.724 1.197 1.785 1.197 3.152v8.392h-2.019l-0.138-1.338c-1.45 0.962-2.818 1.449-4.068 1.449zM154.561 9.599c-1.269 0-2.275 0.304-2.991 0.901-0.714 0.597-1.062 1.418-1.062 2.511 0 0.996 0.31 1.799 0.918 2.388 0.611 0.59 1.48 0.89 2.582 0.89 1.246 0 2.633-0.53 4.122-1.574l0.297-0.21 0.173 1.674h1.207v-7.965c0-1.243-0.355-2.198-1.058-2.838-0.707-0.645-1.738-0.972-3.061-0.972-0.773 0.004-1.53 0.059-2.271 0.163l0.089-0.010c-0.834 0.105-1.499 0.21-1.981 0.314v1.213c0.424-0.102 1.008-0.212 1.6-0.298l0.123-0.015c0.669-0.106 1.344-0.165 2.021-0.179 2.533 0 3.065 1.366 3.065 2.512v1.496h-3.772zM154.561 15.169c-0.041 0.002-0.089 0.004-0.138 0.004-0.653 0-1.252-0.23-1.721-0.613l0.005 0.004c-0.434-0.392-0.705-0.957-0.705-1.586 0-0.035 0.001-0.070 0.002-0.104l-0 0.005c-0.002-0.033-0.003-0.072-0.003-0.111 0-0.635 0.283-1.204 0.729-1.588l0.003-0.002c0.471-0.392 1.154-0.59 2.026-0.59h3.574v3.032l-0.078 0.064c-0.518 0.423-1.112 0.779-1.755 1.044l-0.047 0.017c-0.556 0.251-1.204 0.406-1.886 0.425l-0.007 0zM154.759 11.014c-0.77 0-1.36 0.166-1.753 0.493-0.355 0.307-0.579 0.758-0.579 1.261 0 0.039 0.001 0.077 0.004 0.116l-0-0.005c-0.002 0.030-0.003 0.064-0.003 0.099 0 0.501 0.215 0.951 0.558 1.264l0.001 0.001c0.392 0.314 0.894 0.504 1.441 0.504 0.046 0 0.092-0.001 0.138-0.004l-0.006 0c0.63-0.020 1.223-0.162 1.76-0.405l-0.029 0.012c0.617-0.252 1.149-0.565 1.628-0.943l-0.014 0.011v-2.404h-3.146zM162.915 0.478h1.879v15.914h-1.879v-15.914z"></path>
<path fill="#149038" style="fill: var(--color5, #149038)" d="M165.007 16.606h-2.306v-16.34h2.306v16.34zM163.129 16.179h1.452v-15.488h-1.452v15.488zM170.806 16.414l-4.134-11.958h2.012l3.293 9.88h0.11l3.271-9.88h1.99l-4.178 11.958h-2.365z"></path>
<path fill="#149038" style="fill: var(--color5, #149038)" d="M173.322 16.628h-2.669l-0.050-0.144-4.231-12.24h2.465l3.194 9.582 3.173-9.583h2.444l-4.326 12.384zM170.958 16.201h2.062l4.029-11.53h-1.535l-3.271 9.88h-0.418l-3.293-9.88h-1.558l3.986 11.53zM188.422 14.204v1.68c-1.451 0.499-2.974 0.76-4.509 0.774-1.93 0-3.378-0.509-4.343-1.525s-1.448-2.594-1.448-4.73c0-2.018 0.472-3.558 1.414-4.619s2.306-1.592 4.090-1.592c1.694 0 2.962 0.48 3.802 1.437 0.84 0.958 1.259 2.424 1.26 4.398v0.906h-8.62c0.014 2.696 1.429 4.045 4.243 4.045 1.482-0.022 2.892-0.303 4.195-0.802l-0.084 0.028zM180.045 9.518h6.697c0-2.52-1.068-3.779-3.205-3.78-0.065-0.005-0.141-0.008-0.218-0.008-0.878 0-1.673 0.358-2.246 0.935l-0 0c-0.715 0.678-1.058 1.629-1.028 2.852z"></path>
<path fill="#149038" style="fill: var(--color5, #149038)" d="M183.913 16.871c-1.982 0-3.496-0.536-4.498-1.592-0.999-1.052-1.506-2.694-1.506-4.877 0-2.063 0.494-3.665 1.469-4.761 0.981-1.104 2.41-1.664 4.248-1.664 1.751 0 3.084 0.509 3.962 1.51 0.871 0.994 1.313 2.52 1.313 4.539v1.12h-8.616c0.085 2.433 1.404 3.618 4.026 3.618 1.457-0.023 2.842-0.3 4.122-0.789l-0.083 0.028 0.285-0.102v2.136l-0.146 0.048c-1.362 0.483-2.933 0.77-4.569 0.786l-0.007 0zM183.625 4.405c-1.711 0-3.033 0.512-3.929 1.52-0.903 1.016-1.361 2.522-1.361 4.478 0 2.070 0.467 3.613 1.389 4.583 0.918 0.968 2.328 1.458 4.189 1.458 1.54-0.014 3.015-0.274 4.394-0.744l-0.099 0.029v-1.226c-1.159 0.419-2.496 0.669-3.889 0.688l-0.009 0c-2.942 0-4.442-1.433-4.457-4.258l-0.002-0.214h8.622v-0.693c0-1.912-0.406-3.344-1.207-4.258-0.794-0.905-2.019-1.364-3.642-1.364zM186.955 9.732h-7.118l-0.006-0.208c-0.031-1.28 0.337-2.294 1.094-3.012 0.612-0.614 1.459-0.994 2.395-0.994 0.081 0 0.161 0.003 0.24 0.008l-0.011-0.001h0.002c2.254 0 3.404 1.344 3.404 3.992v0.214zM180.257 9.305h6.269c-0.057-2.256-1.037-3.352-2.989-3.352-0.066-0.005-0.143-0.008-0.221-0.008-0.82 0-1.562 0.335-2.096 0.877l-0 0c-0.626 0.594-0.949 1.428-0.962 2.483zM191.029 0.478h1.879v15.914h-1.879v-15.914z"></path>
<path fill="#149038" style="fill: var(--color5, #149038)" d="M193.122 16.606h-2.306v-16.34h2.306v16.34zM191.242 16.179h1.452v-15.488h-1.452v15.488zM195.803 13.276v-8.82h1.879v8.466c0 0.648 0.177 1.15 0.53 1.502s0.869 0.53 1.547 0.531c1.119 0 2.534-0.502 4.243-1.504v-8.994h1.879v11.936h-1.57l-0.177-1.437c-1.96 1.134-3.588 1.702-4.885 1.702-1.12 0-1.974-0.288-2.564-0.862s-0.884-1.414-0.884-2.52z"></path>
<path fill="#149038" style="fill: var(--color5, #149038)" d="M199.251 16.871c-1.172 0-2.085-0.31-2.713-0.922-0.629-0.614-0.948-1.514-0.948-2.673v-9.032h2.305v8.678c0 0.595 0.154 1.038 0.468 1.352 0.31 0.31 0.781 0.468 1.397 0.468 1.054 0 2.409-0.475 4.030-1.413v-9.086h2.306v12.362h-1.972l-0.161-1.306c-1.862 1.043-3.446 1.572-4.712 1.572zM196.017 4.67v8.606c0 1.040 0.276 1.837 0.82 2.367s1.358 0.801 2.414 0.801c1.253 0 2.861-0.562 4.778-1.673l0.279-0.162 0.193 1.57h1.167v-11.509h-1.452v8.904l-0.106 0.062c-1.734 1.016-3.198 1.532-4.351 1.532-0.734 0-1.305-0.2-1.698-0.592-0.37-0.399-0.597-0.935-0.597-1.523 0-0.046 0.001-0.092 0.004-0.137l-0 0.006v-8.252h-1.452zM122.079 24.864l-2.529 6.928h-1.102l-2.494-6.928h-0.067v6.894h-0.958v-8.018h1.638l2.472 6.95 2.45-6.95h1.604v8.018h-0.947v-6.894h-0.066z"></path>
<path fill="#149038" style="fill: var(--color5, #149038)" d="M119.626 31.898h-1.252l-2.38-6.608v6.575h-1.171v-8.233h1.819l2.397 6.736 2.375-6.736h1.786v8.232h-1.16v-6.581l-2.414 6.614zM118.523 31.685h0.953l2.529-6.928h0.248v6.894h0.733v-7.806h-1.422l-2.525 7.162-2.548-7.162h-1.455v7.806h0.744v-6.894h0.249l2.494 6.927zM124.585 30.522h0.847v1.236h-0.847v-1.236z"></path>
<path fill="#149038" style="fill: var(--color5, #149038)" d="M125.538 31.864h-1.059v-1.448h1.059v1.45zM124.691 31.651h0.634v-1.023h-0.634v1.023zM126.923 31.758v-8.018h0.991v7.15h3.854v0.869h-4.845z"></path>
<path fill="#149038" style="fill: var(--color5, #149038)" d="M131.875 31.864h-5.058v-8.232h1.205v7.15h3.854v1.082zM127.030 31.651h4.631v-0.656h-3.854v-7.15h-0.778v7.806zM132.448 23.606h0.98v1.169h-0.98v-1.169zM132.47 25.744h0.947v6.014h-0.947v-6.014z"></path>
<path fill="#149038" style="fill: var(--color5, #149038)" d="M133.523 31.864h-1.16v-6.227h1.16v6.228zM132.577 31.651h0.734v-5.801h-0.734v5.801zM133.534 24.882h-1.194v-1.383h1.194v1.383zM132.554 24.668h0.766v-0.956h-0.766v0.956zM139.954 27.326v4.432h-0.946v-4.266c0.001-0.019 0.002-0.041 0.002-0.063 0-0.268-0.102-0.512-0.27-0.695l0.001 0.001c-0.187-0.167-0.434-0.27-0.706-0.27-0.026 0-0.052 0.001-0.077 0.003l0.003-0c-0.527 0-1.24 0.256-2.138 0.768v4.522h-0.947v-6.014h0.891v0.734c1.010-0.578 1.83-0.868 2.462-0.868 0.059-0.008 0.128-0.013 0.197-0.013 0.851 0 1.54 0.689 1.54 1.54 0 0.066-0.004 0.131-0.012 0.195l0.001-0.008z"></path>
<path fill="#149038" style="fill: var(--color5, #149038)" d="M140.061 31.864h-1.16v-4.372c0.008-0.123-0.009-0.248-0.049-0.365-0.044-0.122-0.107-0.228-0.188-0.318l0.001 0.001c-0.169-0.148-0.392-0.238-0.636-0.238-0.024 0-0.048 0.001-0.072 0.003l0.003-0c-0.495 0-1.178 0.243-2.031 0.724v4.566h-1.16v-6.228h1.104v0.659c0.95-0.526 1.742-0.792 2.355-0.792 0.060-0.008 0.129-0.012 0.199-0.012 0.908 0 1.645 0.736 1.645 1.645 0 0.067-0.004 0.132-0.012 0.197l0.001-0.008v4.539zM139.114 31.651h0.734v-4.326c0.003-0.035 0.004-0.075 0.004-0.116 0-0.417-0.157-0.798-0.414-1.086l0.001 0.002c-0.289-0.257-0.671-0.413-1.090-0.413-0.042 0-0.085 0.002-0.126 0.005l0.006-0c-0.61 0-1.42 0.288-2.409 0.854l-0.159 0.092v-0.813h-0.678v5.801h0.733v-4.477l0.054-0.031c0.91-0.519 1.647-0.782 2.19-0.782 0.022-0.002 0.048-0.002 0.074-0.002 0.301 0 0.575 0.114 0.782 0.302l-0.001-0.001c0.186 0.201 0.3 0.47 0.3 0.767 0 0.023-0.001 0.046-0.002 0.069l0-0.003v4.159zM141.057 28.884c0-2.182 0.984-3.274 2.951-3.274 0.514 0.010 1.009 0.070 1.487 0.176l-0.050-0.009v-2.517h0.946v8.498h-0.779l-0.1-0.579c-0.611 0.415-1.359 0.673-2.165 0.701l-0.007 0c-0.031 0.002-0.068 0.003-0.105 0.003-0.641 0-1.211-0.3-1.579-0.766l-0.003-0.004c-0.398-0.512-0.596-1.255-0.596-2.228zM142.037 28.84c0 1.478 0.509 2.216 1.526 2.216 0.55 0 1.177-0.222 1.882-0.668v-3.798c-0.408-0.091-0.88-0.148-1.364-0.156l-0.006-0c-0.698 0-1.213 0.194-1.543 0.584s-0.495 0.997-0.495 1.822z"></path>
<path fill="#149038" style="fill: var(--color5, #149038)" d="M143.34 31.987c-0.031 0.002-0.066 0.002-0.102 0.002-0.676 0-1.278-0.316-1.666-0.808l-0.003-0.004c-0.41-0.53-0.618-1.301-0.618-2.293 0-2.244 1.028-3.382 3.058-3.382 0.447 0.008 0.892 0.056 1.33 0.145v-2.494h1.16v8.71h-0.976l-0.090-0.514c-0.595 0.379-1.314 0.613-2.086 0.637l-0.006 0zM144.008 25.717c-1.914 0-2.845 1.036-2.845 3.168 0 0.944 0.193 1.671 0.574 2.162 0.349 0.447 0.888 0.731 1.493 0.731 0.039 0 0.077-0.001 0.115-0.003l-0.005 0c0.792-0.030 1.52-0.282 2.129-0.695l-0.014 0.009 0.134-0.083 0.112 0.646h0.583v-8.283h-0.734v2.541l-0.127-0.026c-0.421-0.095-0.909-0.155-1.408-0.165l-0.008-0zM143.562 31.163c-1.083 0-1.632-0.782-1.632-2.323 0-0.846 0.175-1.482 0.521-1.89 0.35-0.414 0.896-0.622 1.624-0.622 0.467 0.008 0.933 0.060 1.39 0.158l0.086 0.018v3.944l-0.050 0.031c-0.719 0.454-1.372 0.685-1.939 0.685zM144.075 26.541c-0.662 0-1.154 0.184-1.462 0.547-0.312 0.368-0.47 0.958-0.47 1.752 0 1.42 0.464 2.11 1.419 2.11 0.514 0 1.111-0.208 1.776-0.621v-3.65c-0.376-0.081-0.812-0.13-1.258-0.138l-0.006-0zM152.929 27.314v4.443h-0.946v-4.266c0.001-0.016 0.001-0.035 0.001-0.053 0-0.27-0.104-0.516-0.275-0.699l0.001 0.001c-0.186-0.17-0.434-0.274-0.707-0.274-0.024 0-0.047 0.001-0.071 0.002l0.003-0c-0.266 0.008-0.529 0.056-0.779 0.144-0.531 0.191-0.979 0.398-1.406 0.637l0.047-0.024v4.533h-0.946v-8.498h0.946v3.197c1.010-0.565 1.812-0.846 2.406-0.846 0.037-0.003 0.081-0.004 0.124-0.004 0.446 0 0.854 0.166 1.164 0.44l-0.002-0.002c0.276 0.3 0.445 0.702 0.445 1.143 0 0.044-0.002 0.088-0.005 0.132l0-0.006z"></path>
<path fill="#149038" style="fill: var(--color5, #149038)" d="M153.035 31.864h-1.16v-4.372c0.001-0.018 0.002-0.039 0.002-0.060 0-0.238-0.092-0.455-0.243-0.617l0 0.001c-0.273-0.272-0.75-0.328-1.446-0.102-0.503 0.181-0.926 0.375-1.331 0.6l0.046-0.024v4.575h-1.16v-8.713h1.16v3.123c0.948-0.513 1.721-0.773 2.298-0.773 0.037-0.003 0.080-0.004 0.124-0.004 0.476 0 0.91 0.178 1.24 0.471l-0.002-0.002c0.295 0.321 0.476 0.751 0.476 1.223 0 0.043-0.002 0.086-0.005 0.129l0-0.006-0.001 4.55zM152.089 31.651h0.734v-4.337c0.003-0.035 0.004-0.075 0.004-0.116 0-0.415-0.156-0.793-0.413-1.080l0.001 0.002c-0.291-0.254-0.673-0.408-1.092-0.408-0.042 0-0.084 0.002-0.125 0.005l0.006-0c-0.573 0-1.365 0.28-2.353 0.832l-0.159 0.090v-3.272h-0.734v8.285h0.734v-4.491l0.057-0.030c0.384-0.217 0.838-0.425 1.309-0.598l0.066-0.021c0.783-0.254 1.33-0.178 1.662 0.154 0.189 0.202 0.305 0.474 0.305 0.773 0 0.019-0 0.038-0.001 0.057l0-0.003v4.159zM154.009 28.751c-0.002-0.042-0.003-0.090-0.003-0.139 0-0.806 0.283-1.547 0.754-2.128l-0.005 0.006c0.498-0.586 1.236-0.88 2.217-0.88 0.033-0.001 0.072-0.002 0.111-0.002 0.777 0 1.485 0.294 2.019 0.778l-0.003-0.002c0.557 0.516 0.835 1.306 0.835 2.367 0.002 0.042 0.003 0.091 0.003 0.141 0 0.806-0.283 1.546-0.754 2.126l0.005-0.006c-0.498 0.586-1.236 0.88-2.216 0.88-0.033 0.001-0.072 0.002-0.112 0.002-0.777 0-1.485-0.295-2.018-0.779l0.002 0.002c-0.558-0.516-0.836-1.304-0.836-2.366zM158.954 28.751c0.005-0.058 0.008-0.125 0.008-0.193 0-0.566-0.194-1.087-0.519-1.5l0.004 0.005c-0.321-0.383-0.8-0.624-1.334-0.624-0.054 0-0.106 0.002-0.159 0.007l0.007-0c-0.646 0-1.136 0.2-1.47 0.602-0.334 0.4-0.501 0.968-0.501 1.704-0.048 0.608 0.133 1.211 0.506 1.693 0.315 0.38 0.788 0.621 1.316 0.621 0.060 0 0.12-0.003 0.178-0.009l-0.007 0.001c0.646 0 1.135-0.2 1.47-0.601s0.502-0.97 0.502-1.704z"></path>
<path fill="#149038" style="fill: var(--color5, #149038)" d="M156.972 31.998c-0.032 0.001-0.069 0.002-0.107 0.002-0.806 0-1.541-0.306-2.096-0.807l0.003 0.002c-0.577-0.534-0.87-1.357-0.87-2.445-0.002-0.040-0.003-0.088-0.003-0.135 0-0.834 0.292-1.6 0.78-2.201l-0.005 0.006c0.516-0.608 1.29-0.918 2.298-0.918 0.032-0.001 0.070-0.002 0.108-0.002 0.806 0 1.541 0.305 2.095 0.807l-0.003-0.002c0.577 0.534 0.869 1.358 0.869 2.445 0.002 0.041 0.003 0.090 0.003 0.139 0 0.833-0.292 1.598-0.779 2.198l0.005-0.006c-0.517 0.608-1.29 0.918-2.298 0.918zM156.972 25.717c-0.942 0-1.661 0.283-2.135 0.842-0.451 0.557-0.724 1.275-0.724 2.056 0 0.048 0.001 0.095 0.003 0.143l-0-0.007c0 1.026 0.27 1.795 0.801 2.288 0.514 0.464 1.199 0.747 1.95 0.747 0.037 0 0.074-0.001 0.111-0.002l-0.005 0c0.942 0 1.661-0.283 2.135-0.842 0.451-0.558 0.724-1.277 0.724-2.059 0-0.047-0.001-0.093-0.003-0.14l0 0.007c0-1.026-0.27-1.795-0.802-2.288-0.514-0.464-1.199-0.747-1.949-0.747-0.037 0-0.074 0.001-0.11 0.002l0.005-0zM156.862 31.166c-0.019 0.001-0.042 0.001-0.065 0.001-0.556 0-1.053-0.254-1.38-0.652l-0.002-0.003c-0.336-0.429-0.538-0.977-0.538-1.571 0-0.068 0.003-0.135 0.008-0.202l-0.001 0.009c0-0.754 0.178-1.35 0.526-1.768 0.354-0.426 0.876-0.64 1.552-0.64 0.043-0.004 0.094-0.006 0.145-0.006 0.57 0 1.080 0.256 1.421 0.659l0.002 0.003c0.39 0.499 0.579 1.126 0.531 1.758 0 0.756-0.177 1.352-0.526 1.77-0.354 0.424-0.876 0.64-1.552 0.64-0.034 0.002-0.074 0.002-0.115 0.002-0.002 0-0.005 0-0.007 0h0zM157.054 26.55l-0.090 0.002c-0.614 0-1.081 0.19-1.392 0.563-0.316 0.379-0.477 0.93-0.477 1.636-0.005 0.056-0.007 0.12-0.007 0.186 0 0.544 0.184 1.045 0.494 1.444l-0.004-0.005c0.296 0.357 0.74 0.583 1.237 0.583 0.057 0 0.114-0.003 0.17-0.009l-0.007 0.001c0.614 0 1.082-0.19 1.393-0.563 0.316-0.379 0.477-0.93 0.477-1.635v-0.004c0.005-0.055 0.007-0.119 0.007-0.184 0-0.542-0.184-1.041-0.494-1.437l0.004 0.005c-0.296-0.357-0.739-0.583-1.235-0.583-0.027 0-0.054 0.001-0.080 0.002l0.004-0zM161.103 23.26h0.947v8.498h-0.947v-8.498z"></path>
<path fill="#149038" style="fill: var(--color5, #149038)" d="M162.157 31.864h-1.16v-8.71h1.16v8.71zM161.21 31.651h0.733v-8.285h-0.733v8.285zM170.749 25.61c0.031-0.002 0.068-0.003 0.105-0.003 0.447 0 0.854 0.171 1.16 0.45l-0.001-0.001c0.301 0.296 0.451 0.735 0.451 1.314v4.388h-0.947v-4.266c0-0.675-0.353-1.013-1.058-1.014-0.52 0-1.185 0.256-1.994 0.769l0.011 0.523v3.987h-0.947v-4.266c0-0.675-0.349-1.013-1.046-1.014-0.259 0.007-0.514 0.056-0.758 0.145-0.468 0.17-0.872 0.377-1.246 0.626l0.021-0.013v4.522h-0.947v-6.014h0.891v0.735c0.921-0.579 1.697-0.869 2.328-0.869 0.809 0 1.332 0.312 1.57 0.936 0.92-0.624 1.722-0.936 2.406-0.936z"></path>
<path fill="#149038" style="fill: var(--color5, #149038)" d="M172.57 31.864h-1.16v-4.372c0-0.618-0.302-0.906-0.951-0.906-0.486 0-1.121 0.242-1.886 0.72l0.010 0.463v4.096h-1.16v-4.373c0-0.618-0.298-0.906-0.94-0.906-0.262 0.008-0.509 0.058-0.739 0.144l0.016-0.005c-0.405 0.145-0.792 0.336-1.153 0.571v4.568h-1.16v-6.227h1.104v0.651c0.865-0.52 1.611-0.784 2.222-0.784 0.8 0 1.344 0.296 1.618 0.882 0.89-0.586 1.682-0.882 2.358-0.882 0.031-0.002 0.067-0.003 0.103-0.003 0.477 0 0.912 0.182 1.238 0.481l-0.001-0.001c0.32 0.316 0.482 0.784 0.482 1.39v4.495zM171.624 31.651h0.733v-4.282c0-0.546-0.141-0.963-0.419-1.238-0.287-0.259-0.67-0.417-1.089-0.417-0.035 0-0.070 0.001-0.105 0.003l0.005-0c-0.658 0-1.448 0.309-2.346 0.917l-0.111 0.076-0.048-0.126c-0.222-0.584-0.703-0.867-1.47-0.867-0.608 0-1.372 0.286-2.271 0.852l-0.163 0.103v-0.822h-0.678v5.801h0.733v-4.474l0.051-0.032c0.36-0.24 0.772-0.45 1.209-0.61l0.041-0.013c0.253-0.092 0.519-0.142 0.789-0.15 0.754 0 1.154 0.387 1.154 1.12v4.16h0.733v-3.882l-0.012-0.581 0.050-0.032c0.823-0.522 1.513-0.786 2.051-0.786 0.762 0 1.165 0.387 1.165 1.12v4.16zM176.59 23.321v3.994h-0.477v-3.456l-0.749 0.344v-0.455l0.871-0.427h0.354zM177.455 27.32v-0.426c0.198 0.037 0.398 0.058 0.599 0.061 0.019 0.001 0.041 0.002 0.063 0.002 0.392 0 0.743-0.172 0.984-0.444l0.001-0.001c0.263-0.318 0.4-0.723 0.382-1.137-0.364 0.176-0.76 0.274-1.165 0.288-0.020 0.001-0.044 0.002-0.068 0.002-0.294 0-0.561-0.115-0.759-0.302l0.001 0c-0.184-0.204-0.296-0.475-0.296-0.772 0-0.025 0.001-0.050 0.002-0.075l-0 0.003c-0.001-0.016-0.001-0.034-0.001-0.053 0-0.34 0.143-0.646 0.372-0.861l0.001-0.001c0.267-0.236 0.615-0.36 0.971-0.344 0.014-0.001 0.030-0.001 0.046-0.001 0.403 0 0.763 0.182 1.003 0.468l0.002 0.002c0.264 0.312 0.396 0.785 0.396 1.418 0.002 0.040 0.004 0.087 0.004 0.134 0 0.561-0.18 1.079-0.485 1.501l0.005-0.007c-0.309 0.374-0.773 0.611-1.293 0.611-0.039 0-0.077-0.001-0.115-0.004l0.005 0c-0.234-0.004-0.46-0.026-0.68-0.065l0.026 0.004zM177.694 24.508c-0.001 0.016-0.002 0.034-0.002 0.053 0 0.191 0.075 0.365 0.197 0.494l-0-0c0.134 0.116 0.31 0.187 0.503 0.187 0.018 0 0.036-0.001 0.054-0.002l-0.002 0c0.358-0.008 0.708-0.098 1.026-0.261 0.001-0.021 0.001-0.045 0.001-0.069 0-0.327-0.093-0.633-0.255-0.891l0.004 0.007c-0.146-0.203-0.382-0.334-0.649-0.334-0.014 0-0.027 0-0.041 0.001l0.002-0c-0.002 0-0.004-0-0.006-0-0.199 0-0.384 0.059-0.539 0.16l0.004-0.002c-0.095 0.063-0.169 0.15-0.215 0.252l-0.002 0.004c-0.056 0.126-0.083 0.264-0.080 0.402zM180.672 27.32v-0.426c0.198 0.037 0.398 0.058 0.599 0.061 0.019 0.001 0.041 0.002 0.063 0.002 0.392 0 0.744-0.172 0.985-0.444l0.001-0.001c0.263-0.318 0.399-0.723 0.382-1.137-0.364 0.176-0.761 0.274-1.165 0.288-0.021 0.001-0.045 0.002-0.069 0.002-0.293 0-0.56-0.115-0.758-0.302l0 0c-0.184-0.204-0.297-0.475-0.297-0.773 0-0.025 0.001-0.049 0.002-0.074l-0 0.003c-0.001-0.015-0.001-0.032-0.001-0.049 0-0.341 0.143-0.649 0.372-0.866l0.001-0c0.266-0.236 0.614-0.36 0.97-0.344 0.014-0.001 0.030-0.001 0.046-0.001 0.403 0 0.763 0.182 1.003 0.468l0.002 0.002c0.265 0.312 0.397 0.785 0.397 1.418 0.002 0.040 0.004 0.087 0.004 0.134 0 0.561-0.18 1.079-0.485 1.501l0.005-0.007c-0.31 0.374-0.774 0.611-1.294 0.611-0.038 0-0.077-0.001-0.114-0.004l0.005 0c-0.234-0.004-0.46-0.026-0.681-0.065l0.026 0.004zM180.91 24.508c-0.001 0.016-0.002 0.034-0.002 0.053 0 0.191 0.075 0.365 0.197 0.494l-0-0c0.134 0.116 0.311 0.187 0.504 0.187 0.018 0 0.036-0.001 0.054-0.002l-0.002 0c0.376-0.009 0.728-0.105 1.039-0.267l-0.013 0.006c0.001-0.021 0.001-0.046 0.001-0.071 0-0.327-0.094-0.632-0.255-0.89l0.004 0.007c-0.146-0.203-0.382-0.334-0.648-0.334-0.014 0-0.028 0-0.042 0.001l0.002-0c-0.001 0-0.003 0-0.004 0-0.199 0-0.385 0.059-0.54 0.16l0.004-0.002c-0.094 0.063-0.168 0.15-0.214 0.252l-0.002 0.004c-0.051 0.111-0.081 0.242-0.081 0.379 0 0.008 0 0.016 0 0.023l-0-0.001zM184.705 27.315h-0.482c0.009-0.643 0.116-1.258 0.306-1.835l-0.012 0.043c0.223-0.682 0.558-1.271 0.988-1.777l-0.006 0.008h-1.969v-0.432h2.496v0.443c-0.4 0.464-0.73 1.004-0.963 1.592l-0.013 0.038c-0.207 0.57-0.332 1.229-0.344 1.915l-0 0.005zM102.696 27.254v-3.994h2.562v0.432h-2.069v1.343h1.808v0.426h-1.808v1.36h2.063v0.432h-2.557zM106.673 26.91c0.466 0 0.699-0.172 0.699-0.516 0-0.002 0-0.005 0-0.008 0-0.13-0.062-0.245-0.157-0.319l-0.001-0.001c-0.18-0.080-0.372-0.128-0.569-0.144-0.285-0.012-0.544-0.112-0.755-0.271l0.003 0.002c-0.139-0.15-0.225-0.351-0.225-0.573 0-0.003 0-0.005 0-0.008v0c0-0.587 0.398-0.882 1.193-0.882 0.278 0.002 0.557 0.026 0.832 0.072v0.427c-0.231-0.045-0.5-0.075-0.775-0.083l-0.007-0c-0.503 0-0.754 0.148-0.754 0.443-0 0.003-0 0.006-0 0.009 0 0.055 0.009 0.109 0.026 0.158l-0.001-0.003c0.018 0.049 0.050 0.089 0.091 0.116l0.001 0.001c0.044 0.032 0.080 0.056 0.108 0.074 0.046 0.025 0.099 0.043 0.156 0.052l0.003 0c0.078 0.017 0.128 0.027 0.152 0.030s0.082 0.011 0.175 0.022c0.208 0.021 0.412 0.074 0.604 0.155 0.234 0.12 0.392 0.36 0.392 0.637 0 0.024-0.001 0.047-0.003 0.070l0-0.003c0.001 0.014 0.001 0.030 0.001 0.047 0 0.261-0.115 0.495-0.297 0.654l-0.001 0.001c-0.214 0.157-0.483 0.251-0.774 0.251-0.031 0-0.062-0.001-0.093-0.003l0.004 0c-0.362-0.003-0.714-0.026-1.061-0.066l0.046 0.004v-0.438c0.326 0.054 0.656 0.083 0.987 0.089zM108.991 23.598v0.66h0.96v0.41h-0.96v1.88c-0 0.004-0 0.008-0 0.012 0 0.093 0.037 0.177 0.098 0.238l-0-0c0.069 0.059 0.16 0.095 0.259 0.095 0.011 0 0.022-0 0.033-0.001l-0.001 0c0.156-0.002 0.312-0.028 0.46-0.077v0.416c-0.224 0.046-0.453 0.074-0.682 0.083-0.018 0.002-0.038 0.003-0.059 0.003-0.166 0-0.318-0.062-0.433-0.164l0.001 0.001c-0.097-0.118-0.155-0.271-0.155-0.437 0-0.020 0.001-0.040 0.003-0.060l-0 0.003v-1.991h-0.422v-0.299l0.1-0.111h0.322v-0.366l0.283-0.294h0.194zM110.278 26.638h0.421v0.616h-0.421v-0.616z"></path>
</symbol>
<symbol id="icon-right-arrow" viewBox="0 0 80 32">
<path fill="#fff" style="fill: var(--color1, #fff)" d="M63.36 0l16.64 16-3.328 3.2-16.637-16 3.328-3.2z"></path>
<path fill="#fff" style="fill: var(--color1, #fff)" d="M80 16l-16.64 16-3.325-3.2 16.64-16 3.325 3.2z"></path>
<path fill="#fff" style="fill: var(--color1, #fff)" d="M77.648 18.424h-77.648v-4.525h77.648v4.525z"></path>
</symbol>
</defs>
</svg>
